<svg width="113" height="120" viewBox="0 0 113 120" fill="none" xmlns="http://www.w3.org/2000/svg">
<mask id="mask0_62_3015" style="mask-type:luminance" maskUnits="userSpaceOnUse" x="18" y="25" width="77" height="70">
<path d="M18.9839 25.2803H94.0159V94.7203H18.9839V25.2803Z" fill="white"/>
</mask>
<g mask="url(#mask0_62_3015)">
<mask id="mask1_62_3015" style="mask-type:luminance" maskUnits="userSpaceOnUse" x="9" y="8" width="95" height="104">
<path d="M47.4246 8.2168L103.326 42.6755L65.5458 111.794L9.6438 77.3368L47.4246 8.2168Z" fill="white"/>
</mask>
<g mask="url(#mask1_62_3015)">
<mask id="mask2_62_3015" style="mask-type:luminance" maskUnits="userSpaceOnUse" x="9" y="8" width="95" height="104">
<path d="M47.4246 8.2168L103.341 42.6843L65.5729 111.782L9.65674 77.3143L47.4246 8.2168Z" fill="white"/>
</mask>
<g mask="url(#mask2_62_3015)">
<mask id="mask3_62_3015" style="mask-type:luminance" maskUnits="userSpaceOnUse" x="19" y="25" width="75" height="70">
<path d="M75.3828 25.4502L93.8995 59.9577L75.0155 94.5064L37.6149 94.5477L19.0994 60.0389L37.9833 25.4914L75.3828 25.4502Z" fill="white"/>
</mask>
<g mask="url(#mask3_62_3015)">
<path d="M75.3829 25.4502L93.8996 59.9577L75.0157 94.5064L37.615 94.5477L19.0995 60.039L37.9835 25.4915L75.3829 25.4502Z" stroke="#FF7D60" stroke-width="9.99999"/>
</g>
</g>
</g>
</g>
<mask id="mask4_62_3015" style="mask-type:luminance" maskUnits="userSpaceOnUse" x="35" y="37" width="43" height="46">
<path d="M35.7644 37.9805H77.3484V82.1405H35.7644V37.9805Z" fill="white"/>
</mask>
<g mask="url(#mask4_62_3015)">
<path d="M77.2319 59.998C61.6814 63.0392 59.3614 65.503 56.4987 82.0167C53.6349 65.503 51.3149 63.0392 35.7644 59.998C51.3149 56.958 53.6349 54.4942 56.4976 37.9805C59.3614 54.4942 61.6814 56.958 77.2319 59.998Z" fill="#FF7D60"/>
</g>
</svg>
