<svg width="77" height="70" viewBox="0 0 77 70" fill="none" xmlns="http://www.w3.org/2000/svg">
<mask id="mask0_165_78" style="mask-type:luminance" maskUnits="userSpaceOnUse" x="0" y="0" width="77" height="70">
<path d="M0.983887 0.279999H76.0159V69.72H0.983887V0.279999Z" fill="white"/>
</mask>
<g mask="url(#mask0_165_78)">
<mask id="mask1_165_78" style="mask-type:luminance" maskUnits="userSpaceOnUse" x="-9" y="-17" width="95" height="104">
<path d="M29.4246 -16.7838L85.3255 17.675L47.5458 86.7938L-8.3562 52.3363L29.4246 -16.7838Z" fill="white"/>
</mask>
<g mask="url(#mask1_165_78)">
<mask id="mask2_165_78" style="mask-type:luminance" maskUnits="userSpaceOnUse" x="-9" y="-17" width="95" height="104">
<path d="M29.4246 -16.7838L85.3408 17.6837L47.5729 86.7812L-8.34326 52.3137L29.4246 -16.7838Z" fill="white"/>
</mask>
<g mask="url(#mask2_165_78)">
<mask id="mask3_165_78" style="mask-type:luminance" maskUnits="userSpaceOnUse" x="1" y="0" width="75" height="70">
<path d="M57.3828 0.449997L75.8995 34.9575L57.0155 69.5062L19.6149 69.5475L1.09937 35.0387L19.9833 0.491247L57.3828 0.449997Z" fill="white"/>
</mask>
<g mask="url(#mask3_165_78)">
<path d="M57.3829 0.449992L75.8996 34.9575L57.0157 69.5062L19.615 69.5474L1.09952 35.0387L19.9835 0.491239L57.3829 0.449992Z" stroke="#FF7D60" stroke-width="9.99999"/>
</g>
</g>
</g>
</g>
<mask id="mask4_165_78" style="mask-type:luminance" maskUnits="userSpaceOnUse" x="17" y="12" width="43" height="46">
<path d="M17.7644 12.98H59.3484V57.14H17.7644V12.98Z" fill="white"/>
</mask>
<g mask="url(#mask4_165_78)">
<path d="M59.2319 34.9975C43.6814 38.0387 41.3614 40.5025 38.4987 57.0162C35.6349 40.5025 33.3149 38.0387 17.7644 34.9975C33.3149 31.9575 35.6349 29.4937 38.4976 12.98C41.3614 29.4937 43.6814 31.9575 59.2319 34.9975Z" fill="white"/>
</g>
</svg>
