<svg width="113" height="120" viewBox="0 0 113 120" fill="none" xmlns="http://www.w3.org/2000/svg">
<mask id="mask0_62_2989" style="mask-type:luminance" maskUnits="userSpaceOnUse" x="18" y="25" width="77" height="70">
<path d="M18.9839 25.28H94.0159V94.72H18.9839V25.28Z" fill="white"/>
</mask>
<g mask="url(#mask0_62_2989)">
<mask id="mask1_62_2989" style="mask-type:luminance" maskUnits="userSpaceOnUse" x="9" y="8" width="95" height="104">
<path d="M47.4246 8.21625L103.326 42.675L65.5458 111.794L9.6438 77.3363L47.4246 8.21625Z" fill="white"/>
</mask>
<g mask="url(#mask1_62_2989)">
<mask id="mask2_62_2989" style="mask-type:luminance" maskUnits="userSpaceOnUse" x="9" y="8" width="95" height="104">
<path d="M47.4246 8.21625L103.341 42.6837L65.5729 111.781L9.65674 77.3137L47.4246 8.21625Z" fill="white"/>
</mask>
<g mask="url(#mask2_62_2989)">
<mask id="mask3_62_2989" style="mask-type:luminance" maskUnits="userSpaceOnUse" x="19" y="25" width="75" height="70">
<path d="M75.3828 25.45L93.8995 59.9575L75.0155 94.5062L37.6149 94.5475L19.0994 60.0387L37.9833 25.4912L75.3828 25.45Z" fill="white"/>
</mask>
<g mask="url(#mask3_62_2989)">
<path d="M75.3829 25.45L93.8996 59.9575L75.0157 94.5062L37.615 94.5474L19.0995 60.0387L37.9835 25.4912L75.3829 25.45Z" stroke="#FF7D60" stroke-width="9.99999"/>
</g>
</g>
</g>
</g>
<mask id="mask4_62_2989" style="mask-type:luminance" maskUnits="userSpaceOnUse" x="35" y="37" width="43" height="46">
<path d="M35.7644 37.98H77.3484V82.14H35.7644V37.98Z" fill="white"/>
</mask>
<g mask="url(#mask4_62_2989)">
<path d="M77.2319 59.9975C61.6814 63.0387 59.3614 65.5025 56.4987 82.0162C53.6349 65.5025 51.3149 63.0387 35.7644 59.9975C51.3149 56.9575 53.6349 54.4937 56.4976 37.98C59.3614 54.4937 61.6814 56.9575 77.2319 59.9975Z" fill="white"/>
</g>
</svg>
